<svg id="Capa_1" data-name="Capa 1" xmlns="http://www.w3.org/2000/svg" xmlns:xlink="http://www.w3.org/1999/xlink" width="326" height="53" viewBox="0 0 326 53">
  <defs>
    <linearGradient id="Degradado_sin_nombre_2" data-name="Degradado sin nombre 2" y1="26.51" x2="112.83" y2="26.51" gradientUnits="userSpaceOnUse">
      <stop offset="0" stop-color="#fff" stop-opacity="0"/>
      <stop offset="0" stop-color="#fcfefe" stop-opacity="0.01"/>
      <stop offset="0.02" stop-color="#c2e7f1" stop-opacity="0.24"/>
      <stop offset="0.05" stop-color="#8fd2e6" stop-opacity="0.44"/>
      <stop offset="0.08" stop-color="#63c1dc" stop-opacity="0.62"/>
      <stop offset="0.1" stop-color="#40b3d4" stop-opacity="0.76"/>
      <stop offset="0.13" stop-color="#24a8ce" stop-opacity="0.86"/>
      <stop offset="0.17" stop-color="#11a0c9" stop-opacity="0.94"/>
      <stop offset="0.21" stop-color="#069bc7" stop-opacity="0.99"/>
      <stop offset="0.26" stop-color="#029ac6"/>
      <stop offset="0.62" stop-color="#853288"/>
      <stop offset="1" stop-color="#f4a47e"/>
    </linearGradient>
  </defs>
  <title>turnero_logo_andes</title>
  <g>
    <g>
      <path d="M146.1,24.7l-.8-.2a1.3,1.3,0,0,1-.6-.7l-2.8-6.6-5-11.5L129,23.8a1.3,1.3,0,0,1-1.3.9,1.4,1.4,0,0,1-1-.3,1.3,1.3,0,0,1-.5-.8,1.2,1.2,0,0,1,.1-.7l9.2-21.5a1.3,1.3,0,0,1,.6-.7l.7-.2a1.4,1.4,0,0,1,1.4.9l9.2,21.5a1.5,1.5,0,0,1,.1.5,1.3,1.3,0,0,1-.5,1A1.5,1.5,0,0,1,146.1,24.7Z" fill="#fff"/>
      <path d="M217.6,25c-1.8,0-2-1.1-2-1.4s.5-1.4,1.9-1.4h8.8a7.3,7.3,0,0,0,6.1-2.6,10.9,10.9,0,0,0,2-6.9,12.6,12.6,0,0,0-.9-4.8,6.8,6.8,0,0,0-2.6-3.1,7.7,7.7,0,0,0-4.6-1h-9.6a1.3,1.3,0,0,1-1.1-1.3c0-.3.2-1.5,2.1-1.5h9a10,10,0,0,1,5.9,1.5,9.8,9.8,0,0,1,3.6,4.4,15,15,0,0,1,1.1,5.9,15.3,15.3,0,0,1-1.1,6,10.1,10.1,0,0,1-3.6,4.5,10.4,10.4,0,0,1-5.9,1.8h-9.1Z" fill="#fff"/>
      <path d="M315.3,25a11.6,11.6,0,0,1-4.7-.9,14,14,0,0,1-3.9-2.7,1.4,1.4,0,0,1-.4-1,1.4,1.4,0,0,1,.5-1,1.4,1.4,0,0,1,1-.5,1.5,1.5,0,0,1,1.1.5,8.2,8.2,0,0,0,2.9,2.1,9,9,0,0,0,3.6.7,6.7,6.7,0,0,0,3.9-1.1,3,3,0,0,0,1.4-2.6,3.2,3.2,0,0,0-.7-2.1,5.6,5.6,0,0,0-1.9-1.4l-3.3-1.3-3.8-1.5a7.2,7.2,0,0,1-2.5-2.1,5.7,5.7,0,0,1-1.1-3.6,5.6,5.6,0,0,1,1.1-3.3A6.9,6.9,0,0,1,311.3,1a10.6,10.6,0,0,1,4.3-.8,11.3,11.3,0,0,1,4.1.7,7.6,7.6,0,0,1,3.2,2.2,2,2,0,0,1,.5,1.2,1.3,1.3,0,0,1-.5,1,1.6,1.6,0,0,1-1,.4,1.3,1.3,0,0,1-1-.4,6,6,0,0,0-2.2-1.7,7.2,7.2,0,0,0-3-.6,6.9,6.9,0,0,0-3.9,1,2.9,2.9,0,0,0-1.4,2.6,2.8,2.8,0,0,0,.7,1.9,5.6,5.6,0,0,0,1.9,1.4l3.1,1.2,3.9,1.5a7.4,7.4,0,0,1,2.7,2.2,6.3,6.3,0,0,1,1.1,3.9,5.5,5.5,0,0,1-1.1,3.2,7,7,0,0,1-2.9,2.3A10.4,10.4,0,0,1,315.3,25Z" fill="#fff"/>
      <path d="M189.6,24.8a1.4,1.4,0,0,1-1.1-.5L174.3,5.9V23.5a1.2,1.2,0,0,1-.4.9,1.4,1.4,0,0,1-.9.3,1.4,1.4,0,0,1-1-.4,1.2,1.2,0,0,1-.4-.9V1.9a1.3,1.3,0,0,1,.4-1,1.4,1.4,0,0,1,.9-.3A1.4,1.4,0,0,1,174,1l14.3,18.6V1.9a1.3,1.3,0,0,1,.4-1,1.4,1.4,0,0,1,1-.4,1.3,1.3,0,0,1,1.4,1.4V23.4a1.4,1.4,0,0,1-.5,1.1A1.5,1.5,0,0,1,189.6,24.8Z" fill="#fff"/>
      <path d="M263,3.7a1.5,1.5,0,1,1,0-2.9h18.8a1.5,1.5,0,1,1,0,2.9Z" fill="#fff"/>
      <path d="M263,25a1.5,1.5,0,0,1,0-2.9h18.8a1.5,1.5,0,1,1,0,2.9Z" fill="#fff"/>
      <rect x="262.7" y="11.4" width="18.3" height="2.92" rx="1.2" ry="1.2" fill="#fff"/>
    </g>
    <path d="M107.6,42.1c-6.1-.6-8-3.5-10.1-6.7S92,27.1,79.9,30.5h0c-4,.6-6.2,5.6-8.3,10.5l-1.3,2.8a47.4,47.4,0,0,1-2.2-4.7c-1.8-4.3-3.6-9.7-5.3-15s-3.2-9.7-4.6-13.2C55.9,4.9,54,1.4,51.8.8c-.5-.2-6.8-2.1-11.5.7-3,1.6-5.4,7.6-8.8,15.8-1.8,4.5-3.9,9.6-6.3,14.5-2.2-3.3-4.3-6.2-6.8-6.2s-4,2.1-6.8,5.1S4.5,38,0,39.6l.7,2.1c5-1.8,9.1-6.1,12.4-9.5s4.2-4.4,5.3-4.4,3.7,3.2,5.4,5.8l2.3,3.2,1.4,1.7a5,5,0,0,0,3.1,1.7h.6c4.9,0,8.4-10,12.2-20.7.9-2.5,1.9-5.4,2.9-8,1.6,4,3.2,9,4.9,14.2,5.2,16.1,8.7,25.9,13,26.5h0a28.9,28.9,0,0,0,5.6.6c9.2,0,11.7-6,13.8-11.5a27.9,27.9,0,0,1,2.7-5.6l1.9,2.2c2.8,3.3,5.9,7,10.7,7.5h1.2a25.2,25.2,0,0,0,7.8-1.4l4.9-1.6ZM41.3,18.8C38.4,26.9,34.5,38,31.2,38a3.4,3.4,0,0,1-2.3-1.2l-1.2-1.5-1-1.5c2.7-5.3,4.9-10.8,6.9-15.7C36.5,10.9,39,4.7,41.3,3.4h0c2.3-1.3,5.1-1.3,7.2-1h-.1a15,15,0,0,0-2.3,3.7A128.6,128.6,0,0,0,41.3,18.8Zm12,6.2c-2-6.2-3.9-12-5.8-16.4l.7-1.5L49.3,5a5.7,5.7,0,0,1,1.9-2c1.5.8,3.2,4.2,4.9,8.5s2.8,7.9,4.3,12.5,3.7,11,5.5,15.5h0l.4,1,.2.5.2.5.4.8.2.4.4.7.2.5.2.5.4.6v.2l.4.7h0a9.5,9.5,0,0,1-3,3.6,2.7,2.7,0,0,1-1.7.4C61.2,49.7,56.6,35.5,53.2,25.1ZM81.5,40.7c-2.2,5.4-4.2,10.5-13,10l.3-.3h0l.2-.2a16.4,16.4,0,0,0,2.5-3.6l.3-.6h0c.7-1.3,1.3-2.7,1.9-4.1,2-4.5,4-9.2,7.1-9.2a5.4,5.4,0,0,1,3.9,1.7A28.4,28.4,0,0,0,81.5,40.7Zm17.6,2.7c-3.9-.4-6.6-3.6-9.3-6.7l-2.2-2.5h0l-.6-.5A15,15,0,0,0,85,31.9h-.2c7-1.1,8.8,1.7,11,5s3.3,5.1,7,6.6A15.9,15.9,0,0,1,99.1,43.4Z" fill="url(#Degradado_sin_nombre_2)"/>
    <g>
      <path d="M131.3,46.6l-1-2.6H127l-1,2.6h-1l3.2-8.1h.8l3.2,8.1ZM130,43.2l-.9-2.5-.4-1.2-.3,1.2-1,2.5Z" fill="#66dfff"/>
      <path d="M140.8,40.9a2.3,2.3,0,0,1-.8,1.9,3.8,3.8,0,0,1-2.4.7h-1v3.2h-.9V38.5h2.1Q140.8,38.5,140.8,40.9Zm-4.2,1.7h.8a3.1,3.1,0,0,0,1.8-.4,1.5,1.5,0,0,0,.6-1.3,1.4,1.4,0,0,0-.5-1.2,2.7,2.7,0,0,0-1.6-.4h-1.1Z" fill="#66dfff"/>
      <path d="M149.9,40.9a2.3,2.3,0,0,1-.8,1.9,3.8,3.8,0,0,1-2.4.7h-1v3.2h-.9V38.5h2.1Q149.9,38.5,149.9,40.9Zm-4.2,1.7h.8a3.1,3.1,0,0,0,1.8-.4,1.5,1.5,0,0,0,.6-1.3,1.4,1.4,0,0,0-.5-1.2,2.7,2.7,0,0,0-1.6-.4h-1.1Z" fill="#66dfff"/>
      <path d="M158.4,44.5a2,2,0,0,1-.8,1.7,3.4,3.4,0,0,1-2.1.6,5.3,5.3,0,0,1-2.2-.4v-.9l1.1.3h1.2a2.3,2.3,0,0,0,1.4-.4,1.2,1.2,0,0,0,.5-1,1.3,1.3,0,0,0-.2-.7l-.6-.5-1.2-.5a3.8,3.8,0,0,1-1.6-1,2.1,2.1,0,0,1-.5-1.4,1.8,1.8,0,0,1,.7-1.5,2.9,2.9,0,0,1,1.9-.6,5.5,5.5,0,0,1,2.2.4l-.3.8a5,5,0,0,0-2-.4,1.9,1.9,0,0,0-1.2.3,1.1,1.1,0,0,0-.4.9,1.4,1.4,0,0,0,.2.7l.5.5,1.1.5a4.5,4.5,0,0,1,1.8,1A1.9,1.9,0,0,1,158.4,44.5Z" fill="#66dfff"/>
      <path d="M173.9,46.6h-1.1l-4.4-6.8h0q.1,1.2.1,2.2v4.6h-.9V38.5h1.1l4.4,6.8h0v-1q0-.8,0-1.2V38.5h.9Z" fill="#66dfff"/>
      <path d="M182.9,46.6h-4.5V38.5h4.5v.8h-3.6V42h3.4v.8h-3.4v3h3.6Z" fill="#66dfff"/>
      <path d="M193.1,38.5v5.2a2.9,2.9,0,0,1-.8,2.2,3.2,3.2,0,0,1-2.3.8,3.1,3.1,0,0,1-2.3-.8,3,3,0,0,1-.8-2.2V38.5h.9v5.3a2.1,2.1,0,0,0,.6,1.6,2.2,2.2,0,0,0,1.6.5,2.2,2.2,0,0,0,1.6-.5,2.1,2.1,0,0,0,.6-1.6V38.5Z" fill="#66dfff"/>
      <path d="M204.5,42.6a4.9,4.9,0,0,1-.6,2.6,3.1,3.1,0,0,1-1.8,1.4l1.9,2h-1.4l-1.6-1.8h-.3a3.5,3.5,0,0,1-2.8-1.1,4.5,4.5,0,0,1-1-3.1,4.4,4.4,0,0,1,1-3.1,3.5,3.5,0,0,1,2.8-1.1,3.5,3.5,0,0,1,2.7,1.1A4.5,4.5,0,0,1,204.5,42.6Zm-6.5,0a3.8,3.8,0,0,0,.7,2.5,2.9,2.9,0,0,0,4.1,0,3.9,3.9,0,0,0,.7-2.5,3.9,3.9,0,0,0-.7-2.5,2.5,2.5,0,0,0-2-.8,2.5,2.5,0,0,0-2,.9A3.8,3.8,0,0,0,198.1,42.6Z" fill="#66dfff"/>
      <path d="M214.7,38.5v5.2a2.9,2.9,0,0,1-.8,2.2,3.2,3.2,0,0,1-2.3.8,3.1,3.1,0,0,1-2.3-.8,3,3,0,0,1-.8-2.2V38.5h.9v5.3a2.1,2.1,0,0,0,.6,1.6,2.2,2.2,0,0,0,1.6.5,2.2,2.2,0,0,0,1.6-.5,2.1,2.1,0,0,0,.6-1.6V38.5Z" fill="#66dfff"/>
      <path d="M219.1,46.6V38.5h.9v8.1Z" fill="#66dfff"/>
      <path d="M230.9,46.6h-1.1l-4.4-6.8h0q.1,1.2.1,2.2v4.6h-.9V38.5h1.1l4.4,6.8h0v-1q0-.8,0-1.2V38.5h.9Z" fill="#66dfff"/>
      <path d="M240.5,46.6l-1-2.6h-3.2l-1,2.6h-1l3.2-8.1h.8l3.2,8.1Zm-1.3-3.4-.9-2.5-.4-1.2-.3,1.2-1,2.5Z" fill="#66dfff"/>
      <path d="M249.4,44.5a2,2,0,0,1-.8,1.7,3.4,3.4,0,0,1-2.1.6,5.3,5.3,0,0,1-2.2-.4v-.9l1.1.3h1.2a2.3,2.3,0,0,0,1.4-.4,1.2,1.2,0,0,0,.5-1,1.3,1.3,0,0,0-.2-.7l-.6-.5-1.2-.5a3.8,3.8,0,0,1-1.6-1,2.1,2.1,0,0,1-.5-1.4,1.8,1.8,0,0,1,.7-1.5,2.9,2.9,0,0,1,1.9-.6,5.5,5.5,0,0,1,2.2.4l-.3.8a5,5,0,0,0-2-.4,1.9,1.9,0,0,0-1.2.3,1.1,1.1,0,0,0-.4.9,1.4,1.4,0,0,0,.2.7l.5.5,1.1.5a4.5,4.5,0,0,1,1.8,1A1.9,1.9,0,0,1,249.4,44.5Z" fill="#66dfff"/>
      <path d="M265,42.5a4.1,4.1,0,0,1-1.1,3.1,4.3,4.3,0,0,1-3.1,1.1h-2.2V38.5H261a3.6,3.6,0,0,1,4,4Zm-1,0a3.3,3.3,0,0,0-.8-2.4,3.2,3.2,0,0,0-2.4-.8h-1.4v6.5h1.1a3.5,3.5,0,0,0,2.5-.8A3.3,3.3,0,0,0,264,42.6Z" fill="#66dfff"/>
      <path d="M273.6,46.6h-4.5V38.5h4.5v.8H270V42h3.4v.8H270v3h3.6Z" fill="#66dfff"/>
      <path d="M287.5,44.5a2,2,0,0,1-.8,1.7,3.4,3.4,0,0,1-2.1.6,5.3,5.3,0,0,1-2.2-.4v-.9l1.1.3h1.2a2.3,2.3,0,0,0,1.4-.4,1.2,1.2,0,0,0,.5-1,1.3,1.3,0,0,0-.2-.7l-.6-.5-1.2-.5a3.8,3.8,0,0,1-1.6-1,2.1,2.1,0,0,1-.5-1.4,1.8,1.8,0,0,1,.7-1.5,2.9,2.9,0,0,1,1.9-.6,5.5,5.5,0,0,1,2.2.4l-.3.8a5,5,0,0,0-2-.4,1.9,1.9,0,0,0-1.2.3,1.1,1.1,0,0,0-.4.9,1.4,1.4,0,0,0,.2.7l.5.5,1.1.5a4.5,4.5,0,0,1,1.8,1A1.9,1.9,0,0,1,287.5,44.5Z" fill="#66dfff"/>
      <path d="M296.5,46.6l-1-2.6h-3.2l-1,2.6h-1l3.2-8.1h.8l3.2,8.1Zm-1.3-3.4-.9-2.5-.4-1.2-.3,1.2-1,2.5Z" fill="#66dfff"/>
      <path d="M300.8,46.6V38.5h.9v7.2h3.6v.9Z" fill="#66dfff"/>
      <path d="M315.1,38.5v5.2a2.9,2.9,0,0,1-.8,2.2,3.2,3.2,0,0,1-2.3.8,3.1,3.1,0,0,1-2.3-.8,3,3,0,0,1-.8-2.2V38.5h.9v5.3a2.1,2.1,0,0,0,.6,1.6,2.2,2.2,0,0,0,1.6.5,2.2,2.2,0,0,0,1.6-.5,2.1,2.1,0,0,0,.6-1.6V38.5Z" fill="#66dfff"/>
      <path d="M326,42.5a4.1,4.1,0,0,1-1.1,3.1,4.3,4.3,0,0,1-3.1,1.1h-2.2V38.5H322a3.6,3.6,0,0,1,4,4Zm-1,0a3.3,3.3,0,0,0-.8-2.4,3.2,3.2,0,0,0-2.4-.8h-1.4v6.5h1.1a3.5,3.5,0,0,0,2.5-.8A3.3,3.3,0,0,0,325,42.6Z" fill="#66dfff"/>
    </g>
  </g>
</svg>
