<svg id="Capa_1" data-name="Capa 1" xmlns="http://www.w3.org/2000/svg" width="80.3mm" height="25.9mm" viewBox="0 0 227.7 73.3">
  <title>turnero_logo_colegio</title>
  <g>
    <g>
      <path d="M125,25.5a10.8,10.8,0,0,0-4.2.8c-.4.2-1.4.5-1.5.4s0,0,0-.4c1.8-.6,2.8-2.4,4.9-2.7C124.4,24.4,124.8,24.6,125,25.5Z" fill="#fff"/>
      <path d="M205,53.3a6.8,6.8,0,0,0-2.6.5l-1,.3c-.1-.1,0,0,0-.3s1.8-1.5,3.1-1.7S204.9,52.8,205,53.3Z" fill="#fff"/>
      <path d="M99,18.1l-.7,2.3-3.1.8-3,.3a11.7,11.7,0,0,1-3.9-.7,10.8,10.8,0,0,1-3.5-2.1,10,10,0,0,1-2.5-3.3,10.5,10.5,0,0,1-.9-4.5,9.7,9.7,0,0,1,1.7-5.8,10.1,10.1,0,0,1,4.3-3.5A13.7,13.7,0,0,1,92.9.5a11.9,11.9,0,0,1,4.2.8l1.4.3h.8l-.2.9a23.3,23.3,0,0,0-.6,3l-.4-.2a.9.9,0,0,1-.1-.5,2.9,2.9,0,0,0-.3-1.4,4.7,4.7,0,0,0-2.1-1.4,8.7,8.7,0,0,0-3.4-.7,7.6,7.6,0,0,0-7,4.4,11.5,11.5,0,0,0-1.1,5.1,10.6,10.6,0,0,0,.9,4.7,8.8,8.8,0,0,0,2.4,3.1,9.6,9.6,0,0,0,2.9,1.6,7.9,7.9,0,0,0,2.5.5,6.3,6.3,0,0,0,2.8-.6,5.3,5.3,0,0,0,1.8-1.3,12.4,12.4,0,0,0,1.2-1.9q.2-.5.4-.5t.3.3A7.9,7.9,0,0,1,99,18.1Z" fill="#fff"/>
      <path d="M104.5,11.1A9.8,9.8,0,0,1,106,5.8a11.2,11.2,0,0,1,4.1-3.9A10.8,10.8,0,0,1,115.4.5a10.1,10.1,0,0,1,3.8.8,11,11,0,0,1,3.4,2.1A10.1,10.1,0,0,1,125,6.8a10.4,10.4,0,0,1,.9,4.3,10.6,10.6,0,0,1-5.3,9.2,11.1,11.1,0,0,1-5.7,1.5,9.8,9.8,0,0,1-4.4-.9,10.1,10.1,0,0,1-3.3-2.6,11.3,11.3,0,0,1-2-3.5A10.5,10.5,0,0,1,104.5,11.1Zm2.4-1.2a11.1,11.1,0,0,0,1.3,5.2,10.7,10.7,0,0,0,3.5,3.9,8.1,8.1,0,0,0,4.6,1.5,7.2,7.2,0,0,0,3.5-.9,6.9,6.9,0,0,0,2.7-2.8,9.2,9.2,0,0,0,1.1-4.6,12.2,12.2,0,0,0-.7-4.1,11,11,0,0,0-2-3.4,9.1,9.1,0,0,0-2.9-2.3,7.7,7.7,0,0,0-3.5-.8,7.4,7.4,0,0,0-3.7,1,7.3,7.3,0,0,0-2.8,2.9A8.9,8.9,0,0,0,106.8,9.9Z" fill="#fff"/>
      <path d="M131.6,1.5V1h7.1v.6l-1.6.3a1.2,1.2,0,0,0-.8.7,7,7,0,0,0-.2,1.7q-.1,1.4-.1,3.6t-.1,4.4q0,2,0,4a26.4,26.4,0,0,0,.1,2.6,2,2,0,0,0,.3,1.1l.9.3h2.7a16.4,16.4,0,0,0,3.8-.4,9.8,9.8,0,0,0,2.3-.8,3.3,3.3,0,0,0,1.4-2.1h.5q-.1.6-.4,1.9a17.2,17.2,0,0,1-.8,2.4l-2.2-.2h-13v-.5l1.4-.4a1.4,1.4,0,0,0,.6-.8,5.7,5.7,0,0,0,.3-1.6q.1-1.1.1-3.1v-7q0-2.4,0-3.6a7,7,0,0,0-.2-1.8,1.2,1.2,0,0,0-.6-.8Z" fill="#fff"/>
      <path d="M164,16.7h.4q-.2,1.6-.4,2.7a15,15,0,0,1-.6,2.1H151.7V21l.8-.2.5-.3.2-.4a6.3,6.3,0,0,0,.1-.8q.1-.6.1-2.2t.1-3.5q0-2,0-2.5v-5q0-2.3-.1-3.2a1.8,1.8,0,0,0-.4-1.1l-1.1-.5a2.9,2.9,0,0,1,0-.4h11.5q-.1,1.4-.2,2.7t-.4,1.4-.3-.2V3.4a1.4,1.4,0,0,0-1-1.5,8.6,8.6,0,0,0-2.5-.3,22.2,22.2,0,0,0-3.6.3q-.2,2.6-.2,4.4t0,2.7v1.4h5.2l.7-.2a1.1,1.1,0,0,0,.4-.6,11.2,11.2,0,0,0,.4-1.4h.3q0,1.6,0,2.9t0,3h-.4a5.2,5.2,0,0,0-.3-2,1.5,1.5,0,0,0-1.1-.7l-3-.2-2.1.2v2.2a44.6,44.6,0,0,0,.2,6.3l.5.2.6.2h2a9.3,9.3,0,0,0,2.9-.4A3.2,3.2,0,0,0,163,19,7.5,7.5,0,0,0,164,16.7Z" fill="#fff"/>
      <path d="M188.6,11.3v.6l-.8.3-.3.4a1.9,1.9,0,0,0-.1.6q0,.3,0,1t0,2.6.1,2a2.3,2.3,0,0,0,.2.8l.5.5-.2.4-2.2.4-2.5.4-1.9.2h-1.7a13.2,13.2,0,0,1-5.1-.9,9.9,9.9,0,0,1-5.6-5.8,10.8,10.8,0,0,1-.6-3.7A9.8,9.8,0,0,1,172,3.4a12,12,0,0,1,3.9-2.1,14.7,14.7,0,0,1,4.5-.7H182l1.4.2.8.2.9.3,1-.7q.2,0,.2.6a18.2,18.2,0,0,0,.2,2,17.7,17.7,0,0,1,.2,2.1q0,.2-.2.2h-.2l-.2-.3A6.5,6.5,0,0,0,184,2.7a7.2,7.2,0,0,0-4.4-1.2A8.3,8.3,0,0,0,175,2.9a8.7,8.7,0,0,0-3.1,3.5,9.9,9.9,0,0,0-1.1,4.5,10,10,0,0,0,.6,3.3,10.9,10.9,0,0,0,1.9,3.2,9.2,9.2,0,0,0,3,2.4,8.5,8.5,0,0,0,3.9.9,8.2,8.2,0,0,0,3.1-.5,4.2,4.2,0,0,0,1.6-1,1.4,1.4,0,0,0,.2-.7q0-.5,0-2.5a16.1,16.1,0,0,0-.2-2.7,1.3,1.3,0,0,0-.7-1,5.6,5.6,0,0,0-2-.3h-1v-.7h4.1Z" fill="#fff"/>
      <path d="M192.6,1.5V.8h8.8v.7l-1.9.2a1.2,1.2,0,0,0-.8.6q-.5,1-.5,7.6,0,4.6,0,5.8t.1,2.6a6.6,6.6,0,0,0,.2,1.6,1.1,1.1,0,0,0,.8.7,6.7,6.7,0,0,0,2,.2v.6h-8.8v-.6a6.8,6.8,0,0,0,2.3-.4,1.6,1.6,0,0,0,.8-1,12.1,12.1,0,0,0,.4-3.2q.1-2.4.1-5t-.2-6.9a6.2,6.2,0,0,0-.2-1.8,1.4,1.4,0,0,0-.9-.8A6.9,6.9,0,0,0,192.6,1.5Z" fill="#fff"/>
      <path d="M206.3,11.1a9.8,9.8,0,0,1,1.5-5.3,11.2,11.2,0,0,1,4.1-3.9A10.8,10.8,0,0,1,217.3.5a10.1,10.1,0,0,1,3.8.8,11,11,0,0,1,3.4,2.1,10.1,10.1,0,0,1,2.4,3.3,10.4,10.4,0,0,1,.9,4.3,10.6,10.6,0,0,1-5.3,9.2,11.1,11.1,0,0,1-5.7,1.5,9.8,9.8,0,0,1-4.4-.9,10.1,10.1,0,0,1-3.3-2.6,11.3,11.3,0,0,1-2-3.5A10.5,10.5,0,0,1,206.3,11.1Zm2.4-1.2a11.1,11.1,0,0,0,1.3,5.2,10.7,10.7,0,0,0,3.5,3.9,8.1,8.1,0,0,0,4.6,1.5,7.2,7.2,0,0,0,3.5-.9,6.9,6.9,0,0,0,2.7-2.8,9.2,9.2,0,0,0,1.1-4.6,12.2,12.2,0,0,0-.7-4.1,11,11,0,0,0-2-3.4,9.1,9.1,0,0,0-2.9-2.3,7.7,7.7,0,0,0-3.5-.8,7.4,7.4,0,0,0-3.7,1,7.3,7.3,0,0,0-2.8,2.9A8.9,8.9,0,0,0,208.7,9.9Z" fill="#fff"/>
      <path d="M125.8,44.7h.4q-.2,1.6-.4,2.7a15,15,0,0,1-.6,2.1H113.5V49l.8-.2.5-.3.2-.4a6.3,6.3,0,0,0,.1-.8q.1-.6.1-2.2t.1-3.5q0-2,0-2.5v-5q0-2.3-.1-3.2a1.8,1.8,0,0,0-.4-1.1l-1.1-.5a2.9,2.9,0,0,1,0-.4h11.5q-.1,1.4-.2,2.7t-.4,1.4-.3-.2V31.5a1.4,1.4,0,0,0-1-1.5,8.6,8.6,0,0,0-2.5-.3,22.2,22.2,0,0,0-3.6.3q-.2,2.6-.2,4.4t0,2.7v1.4h5.2l.7-.2a1.1,1.1,0,0,0,.4-.6,11.2,11.2,0,0,0,.4-1.4h.3q0,1.6,0,2.9t0,3h-.4a5.2,5.2,0,0,0-.3-2,1.5,1.5,0,0,0-1.1-.7l-3-.2-2.1.2v2.2a44.6,44.6,0,0,0,.2,6.3l.5.2.6.2h2a9.3,9.3,0,0,0,2.9-.4,3.2,3.2,0,0,0,1.6-1.2A7.5,7.5,0,0,0,125.8,44.7Z" fill="#fff"/>
      <path d="M131.3,29.7v-.6a61.3,61.3,0,0,0,7.1-.3h2.2a14.4,14.4,0,0,1,4.5.7,12.2,12.2,0,0,1,3.8,2,9.6,9.6,0,0,1,2.6,3.2,9.4,9.4,0,0,1,1,4.3,9.7,9.7,0,0,1-1.5,5.3,10.2,10.2,0,0,1-4.2,3.7,13.8,13.8,0,0,1-6.3,1.4h-9.5v-.6q1.7,0,2-.7t.4-7.9q0-4.6-.1-6.9a7.8,7.8,0,0,0-.4-2.8Q132.7,29.7,131.3,29.7Zm18.5,9.2a9.2,9.2,0,0,0-1.4-5.2,9.3,9.3,0,0,0-3.6-3.3,10.2,10.2,0,0,0-8.7-.3,52.6,52.6,0,0,0-.2,5.3q-.1,4.4-.1,7.6v3.3q0,1.1,0,1.2l2.5.7,2.2.2a9.4,9.4,0,0,0,5.4-1.4,8.2,8.2,0,0,0,3-3.6A11.6,11.6,0,0,0,149.9,38.9Z" fill="#fff"/>
      <path d="M157.4,29.5v-.7h8.8v.7l-1.9.2a1.2,1.2,0,0,0-.8.6q-.5,1-.5,7.6,0,4.6,0,5.8t.1,2.6a6.6,6.6,0,0,0,.2,1.6,1.1,1.1,0,0,0,.8.7,6.7,6.7,0,0,0,2,.2v.6h-8.8v-.6a6.8,6.8,0,0,0,2.3-.4,1.6,1.6,0,0,0,.8-1,12.1,12.1,0,0,0,.4-3.2q.1-2.4.1-5t-.2-6.9a6.2,6.2,0,0,0-.2-1.8,1.4,1.4,0,0,0-.9-.8A6.9,6.9,0,0,0,157.4,29.5Z" fill="#fff"/>
      <path d="M188.9,46.2l-.7,2.3-3.1.8-3,.3a11.7,11.7,0,0,1-3.9-.7,10.8,10.8,0,0,1-3.5-2.1,10,10,0,0,1-2.5-3.3,10.5,10.5,0,0,1-.9-4.5,9.7,9.7,0,0,1,1.7-5.8,10.1,10.1,0,0,1,4.3-3.5,13.7,13.7,0,0,1,5.4-1.1,11.9,11.9,0,0,1,4.2.8l1.4.3h.8l-.2.9a23.3,23.3,0,0,0-.6,3l-.4-.2a.9.9,0,0,1-.1-.5,2.9,2.9,0,0,0-.3-1.4,4.7,4.7,0,0,0-2.1-1.4,8.7,8.7,0,0,0-3.4-.7,7.6,7.6,0,0,0-7,4.4,11.5,11.5,0,0,0-1.1,5.1,10.6,10.6,0,0,0,.9,4.7,8.8,8.8,0,0,0,2.4,3.1,9.6,9.6,0,0,0,2.9,1.6,7.9,7.9,0,0,0,2.5.5,6.3,6.3,0,0,0,2.8-.6,5.3,5.3,0,0,0,1.8-1.3,12.4,12.4,0,0,0,1.2-1.9q.2-.5.4-.5t.3.3A7.9,7.9,0,0,1,188.9,46.2Z" fill="#fff"/>
      <path d="M194.3,39.1a9.8,9.8,0,0,1,1.5-5.3,11.2,11.2,0,0,1,4.1-3.9,10.8,10.8,0,0,1,5.4-1.4,10.1,10.1,0,0,1,3.8.8,11,11,0,0,1,3.4,2.1,10.1,10.1,0,0,1,2.4,3.3,10.7,10.7,0,0,1-4.4,13.5,11.1,11.1,0,0,1-5.7,1.5,9.8,9.8,0,0,1-4.4-.9,10.1,10.1,0,0,1-3.3-2.6,11.3,11.3,0,0,1-2-3.5A10.5,10.5,0,0,1,194.3,39.1Zm2.4-1.2a11.1,11.1,0,0,0,1.3,5.2,10.7,10.7,0,0,0,3.5,3.9,8.1,8.1,0,0,0,4.6,1.5,7.2,7.2,0,0,0,3.5-.9,6.9,6.9,0,0,0,2.7-2.8,9.2,9.2,0,0,0,1.1-4.6,12.2,12.2,0,0,0-.7-4.1,11,11,0,0,0-2-3.4,9.1,9.1,0,0,0-2.9-2.3,7.7,7.7,0,0,0-3.5-.8,7.4,7.4,0,0,0-3.7,1,7.3,7.3,0,0,0-2.8,2.9A8.9,8.9,0,0,0,196.7,37.9Z" fill="#fff"/>
      <path d="M80.5,57.7v-.4l4.7-.2h1.5a9.4,9.4,0,0,1,2.9.5A8,8,0,0,1,92,58.8a6.2,6.2,0,0,1,1.7,2.1,6.1,6.1,0,0,1,.6,2.8,6.4,6.4,0,0,1-1,3.4,6.7,6.7,0,0,1-2.8,2.4,9,9,0,0,1-4.1.9H80.4V70q1.1,0,1.3-.5a24.6,24.6,0,0,0,.3-5.1q0-3-.1-4.5a5.1,5.1,0,0,0-.3-1.9Q81.4,57.7,80.5,57.7Zm12.1,6a6,6,0,0,0-.9-3.4,6.1,6.1,0,0,0-2.4-2.1,6.7,6.7,0,0,0-5.6-.2,34.4,34.4,0,0,0-.2,3.4q-.1,2.9-.1,4.9v3l1.6.5h1.4a6.1,6.1,0,0,0,3.5-.9,5.3,5.3,0,0,0,2-2.4A7.6,7.6,0,0,0,92.6,63.7Z" fill="#fff"/>
      <path d="M105.6,67.5h.2q-.1,1.1-.3,1.8a9.8,9.8,0,0,1-.4,1.3H97.6v-.4l.5-.2.3-.2v-.8q0-.4.1-1.4t.1-2.3,0-1.6V60.5q0-1.5-.1-2.1a1.2,1.2,0,0,0-.3-.7l-.7-.3a1.9,1.9,0,0,1,0-.3h7.5q0,.9-.1,1.8t-.3.9-.2-.2v-.8a.9.9,0,0,0-.7-1l-1.6-.2-2.4.2q-.1,1.7-.1,2.9t0,1.8v.9h3.9l.2-.4.2-.9h.2q0,1.1,0,1.9t0,1.9h-.3a3.4,3.4,0,0,0-.2-1.3,1,1,0,0,0-.7-.5H99.9v1.5a29.1,29.1,0,0,0,.1,4.1h2a6.1,6.1,0,0,0,1.9-.2A2.1,2.1,0,0,0,105,69,4.9,4.9,0,0,0,105.6,67.5Z" fill="#fff"/>
      <path d="M115.5,57.5v-.4h2.7l1.5,1.7,1.9,1.9,1.2,1.1,6.1,5.8q.1-1.3.1-3.9v-2q0-1.6-.1-2.4a3.1,3.1,0,0,0-.3-1.2,1.1,1.1,0,0,0-.6-.5l-1.2-.3v-.3H131v.4l-.9.3a1.1,1.1,0,0,0-.4.7,22.1,22.1,0,0,0-.3,3.3q-.1,2.5-.1,4.7t0,1.7,0,1.4.1,1.2h-.4q-.7-1.5-4.3-4.9L121,62.2l-1-.9-1.9-1.8v6.3a16.1,16.1,0,0,0,.1,2.7,1.4,1.4,0,0,0,.6,1l1.7.5a1.7,1.7,0,0,1,0,.4h-4.5v-.2q0-.2.1-.2h.2l.7-.2a.8.8,0,0,0,.3-.4,3.9,3.9,0,0,0,.2-1q.1-.7.1-1.8V61.8a22.6,22.6,0,0,0-.1-2.4,2.4,2.4,0,0,0-.5-1.3A1.8,1.8,0,0,0,115.5,57.5Z" fill="#fff"/>
      <path d="M142.6,67.5h.2q-.1,1.1-.3,1.8a9.8,9.8,0,0,1-.4,1.3h-7.6v-.4l.5-.2.3-.2v-.8q0-.4.1-1.4t.1-2.3,0-1.6V60.5q0-1.5-.1-2.1a1.2,1.2,0,0,0-.3-.7l-.7-.3a1.9,1.9,0,0,1,0-.3h7.5q0,.9-.1,1.8t-.3.9-.2-.2v-.8a.9.9,0,0,0-.7-1l-1.6-.2-2.4.2q-.1,1.7-.1,2.9t0,1.8v.9h3.9l.2-.4.2-.9h.2q0,1.1,0,1.9t0,1.9h-.3a3.4,3.4,0,0,0-.2-1.3,1,1,0,0,0-.7-.5h-3.3v1.5a29.1,29.1,0,0,0,.1,4.1h2a6.1,6.1,0,0,0,1.9-.2A2.1,2.1,0,0,0,142,69,4.9,4.9,0,0,0,142.6,67.5Z" fill="#fff"/>
      <path d="M146.2,57.6v-.4h4.9v.3l-1.3.3-.5.5q-.3.6-.3,4.8,0,1.5,0,2.6a11.5,11.5,0,0,0,.2,1.7,2.7,2.7,0,0,0,1.7,2.1,6.9,6.9,0,0,0,2.5.5l1.6-.2a5.5,5.5,0,0,0,1.7-.7,2.4,2.4,0,0,0,1.1-1.3,23.8,23.8,0,0,0,.6-6.5,19.8,19.8,0,0,0-.1-2.2,2.8,2.8,0,0,0-.3-1.1.8.8,0,0,0-.5-.4h-.9v-.4h4v.4l-1,.2a.6.6,0,0,0-.3.4,11.3,11.3,0,0,0-.1,1.4q0,2-.1,3.5t-.2,2.5a14.2,14.2,0,0,1-.3,1.7,5.1,5.1,0,0,1-.4,1.2,3.2,3.2,0,0,1-1.5,1.4,6.9,6.9,0,0,1-2,.6H153a7.6,7.6,0,0,1-2.6-.4,4.1,4.1,0,0,1-1.9-1.4,4,4,0,0,1-.7-2.5q0-.4,0-2t0-2.5a16.3,16.3,0,0,0-.3-3.8l-.2-.3Z" fill="#fff"/>
      <path d="M179.5,72.6v.2l-1.4.4H177a9.8,9.8,0,0,1-6.3-2.6h-1.6l-1.4-.4a6.3,6.3,0,0,1-2.3-1.6,7.4,7.4,0,0,1-1.4-2.3,7.1,7.1,0,0,1-.5-2.5,6.4,6.4,0,0,1,1-3.4,7.2,7.2,0,0,1,2.6-2.5,7,7,0,0,1,3.6-.9,6.7,6.7,0,0,1,2.5.5,7.1,7.1,0,0,1,2.2,1.4,6.7,6.7,0,0,1,1.6,2.2,7,7,0,0,1,0,5.6,7.2,7.2,0,0,1-1.6,2.3l-1,.8-1.4.7q3.4,2.4,5.7,2.4ZM165.1,63a7.2,7.2,0,0,0,.5,2.6,7.5,7.5,0,0,0,1.4,2.2,6.4,6.4,0,0,0,2,1.5,5.1,5.1,0,0,0,2.3.6,4.6,4.6,0,0,0,4-2.4,5.9,5.9,0,0,0,.7-3,7.9,7.9,0,0,0-.5-2.7,7.1,7.1,0,0,0-1.3-2.2,6,6,0,0,0-1.9-1.5,5,5,0,0,0-2.3-.5,4.9,4.9,0,0,0-2.4.6,4.8,4.8,0,0,0-1.8,1.9A5.8,5.8,0,0,0,165.1,63Z" fill="#fff"/>
      <path d="M180.6,57.6v-.4h4.9v.3l-1.3.3-.5.5q-.3.6-.3,4.8,0,1.5,0,2.6a11.5,11.5,0,0,0,.2,1.7,2.7,2.7,0,0,0,1.7,2.1,6.9,6.9,0,0,0,2.5.5l1.6-.2a5.5,5.5,0,0,0,1.7-.7,2.4,2.4,0,0,0,1.1-1.3,23.8,23.8,0,0,0,.6-6.5,19.8,19.8,0,0,0-.1-2.2,2.8,2.8,0,0,0-.3-1.1.8.8,0,0,0-.5-.4H191v-.4h4v.4l-1,.2a.6.6,0,0,0-.3.4,11.3,11.3,0,0,0-.1,1.4q0,2-.1,3.5t-.2,2.5a14.2,14.2,0,0,1-.3,1.7,5.1,5.1,0,0,1-.4,1.2,3.2,3.2,0,0,1-1.5,1.4,6.9,6.9,0,0,1-2,.6h-1.9a7.6,7.6,0,0,1-2.6-.4,4.1,4.1,0,0,1-1.9-1.4,4,4,0,0,1-.7-2.5q0-.4,0-2t0-2.5a16.3,16.3,0,0,0-.3-3.8l-.2-.3Z" fill="#fff"/>
      <path d="M205.8,67.5h.2q-.1,1.1-.3,1.8a9.8,9.8,0,0,1-.4,1.3h-7.6v-.4l.5-.2.3-.2v-.8q0-.4.1-1.4t.1-2.3,0-1.6V60.5q0-1.5-.1-2.1a1.2,1.2,0,0,0-.3-.7l-.7-.3a1.9,1.9,0,0,1,0-.3h7.5q0,.9-.1,1.8t-.3.9-.2-.2v-.8a.9.9,0,0,0-.7-1l-1.6-.2-2.4.2q-.1,1.7-.1,2.9t0,1.8v.9h3.9l.2-.4.2-.9h.2q0,1.1,0,1.9t0,1.9h-.3a3.4,3.4,0,0,0-.2-1.3,1,1,0,0,0-.7-.5h-3.3v1.5a29.1,29.1,0,0,0,.1,4.1h2a6.1,6.1,0,0,0,1.9-.2,2.1,2.1,0,0,0,1.1-.8A4.9,4.9,0,0,0,205.8,67.5Z" fill="#fff"/>
      <path d="M209.3,57.5v-.4H212l1.5,1.7,1.9,1.9,1.2,1.1,6.1,5.8q.1-1.3.1-3.9v-2q0-1.6-.1-2.4a3.1,3.1,0,0,0-.3-1.2,1.1,1.1,0,0,0-.6-.5l-1.2-.3v-.3h4.2v.4l-.9.3a1.1,1.1,0,0,0-.4.7,22.1,22.1,0,0,0-.3,3.3q-.1,2.5-.1,4.7t0,1.7,0,1.4.1,1.2H223q-.7-1.5-4.3-4.9l-3.9-3.6-1-.9-1.9-1.8v6.3a16.1,16.1,0,0,0,.1,2.7,1.4,1.4,0,0,0,.6,1l1.7.5a1.7,1.7,0,0,1,0,.4h-4.5v-.2q0-.2.1-.2h.2l.7-.2a.8.8,0,0,0,.3-.4,3.9,3.9,0,0,0,.2-1q.1-.7.1-1.8V61.8a22.6,22.6,0,0,0-.1-2.4,2.4,2.4,0,0,0-.5-1.3A1.8,1.8,0,0,0,209.3,57.5Z" fill="#fff"/>
      <path d="M84.7,28.1c1.1.3,1.9,3.2,2.5,4.2,1.4,2.7,2.6,5.5,4,8.2a26.6,26.6,0,0,1,2.5,5.1h.1c1.1-1.3,1.6-3.4,2.3-5.1s2.7-5.5,4-8.1c.5-1,1.3-4,2.3-4.2v.3c.7,1.1.2,3.1.5,4.5.7,3.2.5,6.9,1.2,10.1s-.2,4.7,1.5,5.3,1.5.3,2.2.5h-.1c-.8.5-4.9,0-5.8-.1v-.3c.3-.4.2-3.2,0-4.1l-1.1-11h-.1v.3c-.9,1-1.3,2.8-1.9,4.1s-2.4,4.6-3.4,6.9c-.3.6-1.7,4.3-2.1,4.4s-1.8-2.9-2.1-3.4c-1.5-3-3-6-4.4-9.2a20.3,20.3,0,0,1-1.4-2.9h-.1v1.5c-.5.8-.1,2.1-.3,3.2s-.1,3.2-.4,4.8a14.8,14.8,0,0,0-.3,5.2l1.9.5h-.1c-.7.4-4.6.2-5.8.1V49h.1c.8,0,1.4-.1,1.6-.7s.4-4.6.8-6.3Z" fill="#fff"/>
    </g>
    <path d="M8.6,71.1H0L1.1,0H34.5a11.7,11.7,0,0,0-1.6,1.2c-.4.4-.5,1.1-.9,1.5s-2.2.6-2.8,1.2-.6,1.5-1.1,2.3-.7.6-.8.9L27,9.8a12.9,12.9,0,0,0-1.2,5.1c-5.4,1.4-11.5,9-6.8,15.3a17.1,17.1,0,0,0,6,4.3c1.5.5,3.6.2,4.8,1.1-.7,1.1.4,2.7-.5,3.9s-2.2.8-3.1,1.5-3.9,6.7-1.3,9.1c-.3,1.4-1.4,3.2-.9,5.1a15.8,15.8,0,0,1,.9,4.3,7.1,7.1,0,0,1-.7,3.6l-.5.5c-.5,1.3.7,2.7.9,3.6s-1.1,2.6-.7,3.6l.8.4h0" fill="#fff"/>
    <path d="M72.7,0c-.2,23.8,0,71.2,0,71.2H29.3s4.2-1.7,4.1-4.8c.4-.4.6-1.1,1.2-1.3h.1c.4,1.1,3.5.8,4.7.5v-.4c.3-.6.1-2.1.3-2.7,3.9-.1,7.2-2.4,8-5.6s-.6-3.1-.8-4.4.8-1.3,1.2-1.9,2.6-2.4,3.6-3.7.8-1.8,1.5-2.3l1.3-.4c.4-.2.8-.8,1.2-.9s3-.2,3.7-1.1l.4-1.1c.1-.2.5-.4.5-.7V24.4c0-1.8.2-3.9-.3-5.4s-2.2-.5-3.5-.5c0-6.7-5.7-5.3-11.1-6.3-.9-1.7-2.9-2.4-3.2-4.6a1.9,1.9,0,0,1-.9-.3c-.1-.2-.1-.2-.1-.5h-.7V5.6L38.8,4.2c-.2-.3.2-.9-.1-1.1H38A19.7,19.7,0,0,0,37.7.8a1.7,1.7,0,0,1-.5-.8Z" fill="#fff"/>
    <g>
      <path d="M40.1,19.8V13.5c5.9-.2,12.3-.5,15.5,2.5.1,2.1,0,4.6-1.6,5.4s-3.5-.1-4.4-.4A43,43,0,0,0,40.1,19.8Z" fill="#fff"/>
      <path d="M35.5,13.9v6.2h-.1c-3.8.1-10.7,1.6-10.7,5.2v.3c3.9,2.4,8.8,3.3,13.9,4.6s9,.9,12,2.9,3.9,5.6,1.3,7.6-6.8,3-12,2.9V39a9.9,9.9,0,0,1,2.7-.1c1.4-.8,4.8.9,5-1.7-2-1.1-5.1-.7-7.8-1.3-7.4-1.8-16.1-1.1-19.9-6.3a7.6,7.6,0,0,1,.1-8.8C22.9,16.5,28.6,14,35.5,13.9Z" fill="#fff"/>
      <path d="M35.1,44c-2.2,0-5.2.4-6,1.7s-.2.4-.1.7,2.1,1.3,3.2,1.7a73.3,73.3,0,0,0,7.1,1.9c1.4.4,2.7.3,3.9.8,2.8,1.2,5.1,4.2,2.8,7.6-1.1,1.6-3.7,2.4-6,2.8V58.4c1.9-.4,2.4-1.2,3.5-2.3v-.9c-.4-.3-.7-.8-1.2-.9L34.8,53c-3.3-.9-6.3-1.5-8.7-3.3s-1.7-3.7-.8-5.5c1.9-3.8,5-3.8,9.8-4.7Z" fill="#fff"/>
      <path d="M34.8,58.6a10.7,10.7,0,0,1-.1,2.9c-2-.3-6.1,0-6.7-1.7s.2-1.9,1.6-1.7A49.5,49.5,0,0,0,34.8,58.6Z" fill="#fff"/>
    </g>
    <g>
      <polygon points="39.2 29.1 36.5 28.5 36.5 6.4 39.2 6.4 39.2 29.1" fill="#fff"/>
      <polygon points="39.2 48.7 36.5 48.3 36.5 36.3 39.2 36.7 39.2 48.7" fill="#fff" fill-rule="evenodd"/>
      <polygon points="39.2 64.7 36.5 64.6 36.5 54.7 39.2 54.9 39.2 64.7" fill="#fff" fill-rule="evenodd"/>
    </g>
  </g>
</svg>
